<?xml version="1.0" encoding="UTF-8"?>
<svg id="Ebene_1" data-name="Ebene 1" xmlns="http://www.w3.org/2000/svg" viewBox="0 0 1076.01 751.28">
  <defs>
    <style>
      .cls-1 {
        fill: #fff;
        stroke-width: 0px;
      }
    </style>
  </defs>
  <g>
    <g>
      <path class="cls-1" d="M55.73,459.46c9.56,0,16.96.96,22.2,2.89,5.24,1.93,9.71,3.97,13.41,6.13,1.85,1.08,3.35,1.89,4.51,2.43,1.16.54,2.27.81,3.35.81,1.54,0,2.66-.85,3.35-2.54.69-1.69,1.27-4.24,1.73-7.63h5.32c-.16,3.09-.35,6.71-.58,10.87-.23,4.16-.39,9.68-.46,16.54-.08,6.86-.12,15.92-.12,27.17h-5.32c-.62-8.33-2.54-16.34-5.78-24.05-3.24-7.71-7.67-14.11-13.3-19.19-5.63-5.09-12.53-7.63-20.7-7.63-7.09,0-12.95,1.97-17.57,5.9-4.63,3.93-6.94,9.52-6.94,16.77,0,5.86,1.46,10.91,4.39,15.15,2.93,4.24,7.36,8.52,13.3,12.83,5.93,4.32,13.45,9.64,22.55,15.96,7.24,4.78,13.72,9.56,19.42,14.34,5.7,4.78,10.29,10.18,13.76,16.19,3.47,6.01,5.2,13.26,5.2,21.74,0,10.18-2.78,18.62-8.33,25.32-5.55,6.71-12.87,11.72-21.97,15.03-9.1,3.31-19.04,4.97-29.83,4.97-10.02,0-18-.92-23.93-2.77-5.94-1.85-10.99-3.78-15.15-5.78-3.39-2.16-6.01-3.24-7.86-3.24-1.54,0-2.66.85-3.35,2.54-.69,1.7-1.27,4.24-1.73,7.63H0c.31-3.85.5-8.36.58-13.53.08-5.16.15-11.83.23-20,.08-8.17.12-18.58.12-31.22h5.32c.61,10.49,2.35,20.27,5.2,29.37,2.85,9.1,7.24,16.46,13.18,22.09,5.93,5.63,13.84,8.44,23.7,8.44,5.55,0,10.41-.92,14.57-2.78,4.16-1.85,7.48-4.58,9.94-8.21,2.46-3.62,3.7-8.05,3.7-13.3,0-6.48-1.47-12.1-4.39-16.88-2.93-4.78-6.94-9.29-12.03-13.53-5.09-4.24-11.02-8.52-17.81-12.83-7.25-4.78-14.03-9.63-20.35-14.57-6.32-4.93-11.37-10.44-15.15-16.54-3.78-6.09-5.67-13.45-5.67-22.09,0-9.86,2.54-17.96,7.63-24.28,5.09-6.32,11.83-10.98,20.23-13.99,8.4-3.01,17.3-4.51,26.71-4.51Z"/>
      <path class="cls-1" d="M220.15,503.17c6.78,0,12.22.85,16.3,2.54,4.08,1.7,7.2,3.86,9.37,6.47,2.46,2.93,4.28,6.71,5.43,11.33,1.16,4.62,1.73,10.87,1.73,18.73v62.44c0,6.48,1.04,10.87,3.12,13.18,2.08,2.31,5.66,3.47,10.75,3.47v4.86c-3.09-.15-7.67-.35-13.76-.58-6.09-.23-11.99-.35-17.69-.35-6.32,0-12.41.11-18.27.35-5.86.23-10.25.43-13.18.58v-4.86c4.31,0,7.32-1.16,9.02-3.47,1.69-2.31,2.54-6.71,2.54-13.18v-73.54c0-3.54-.39-6.59-1.16-9.13-.77-2.54-2.08-4.47-3.93-5.78-1.85-1.31-4.47-1.97-7.86-1.97s-6.82.92-9.83,2.77c-3.01,1.85-5.4,4.43-7.17,7.75-1.77,3.32-2.66,7.05-2.66,11.22v68.68c0,6.48.85,10.87,2.54,13.18,1.69,2.31,4.7,3.47,9.02,3.47v4.86c-2.93-.15-7.17-.35-12.72-.58-5.55-.23-11.18-.35-16.88-.35-6.32,0-12.64.11-18.96.35-6.32.23-11.1.43-14.34.58v-4.86c5.09,0,8.67-1.16,10.75-3.47,2.08-2.31,3.12-6.71,3.12-13.18v-73.08c0-6.94-1.01-12.06-3.01-15.38-2.01-3.31-5.63-4.97-10.87-4.97v-4.86c4.93.46,9.71.69,14.34.69,6.94,0,13.53-.27,19.77-.81,6.24-.54,11.99-1.35,17.23-2.43v18.73c3.7-7.09,8.75-12.1,15.15-15.03,6.4-2.93,13.76-4.39,22.09-4.39Z"/>
      <path class="cls-1" d="M306.18,627.81c-7.09,0-12.95-1.35-17.57-4.05-4.63-2.69-8.02-6.28-10.18-10.75-2.16-4.47-3.24-9.25-3.24-14.34,0-6.48,1.5-11.79,4.51-15.96,3.01-4.16,6.9-7.52,11.68-10.06,4.78-2.54,9.79-4.66,15.03-6.36,5.24-1.69,10.25-3.35,15.03-4.97,4.78-1.62,8.63-3.54,11.56-5.78,2.93-2.23,4.39-5.12,4.39-8.67v-19.19c0-3.39-.5-6.59-1.5-9.6-1.01-3.01-2.78-5.47-5.32-7.4-2.54-1.93-6.05-2.89-10.52-2.89-2.78,0-5.47.39-8.09,1.16-2.62.77-4.94,2-6.94,3.7,4.93,1.7,8.59,4.24,10.98,7.63,2.39,3.39,3.58,7.17,3.58,11.33,0,5.71-1.97,10.21-5.9,13.53-3.93,3.32-8.6,4.97-13.99,4.97-5.86,0-10.37-1.85-13.53-5.55-3.16-3.7-4.74-8.17-4.74-13.41,0-4.63,1.16-8.52,3.47-11.68,2.31-3.16,5.7-6.05,10.18-8.67,4.47-2.62,9.86-4.55,16.19-5.78,6.32-1.23,13.03-1.85,20.12-1.85s13.91.73,20,2.2c6.09,1.47,11.29,4.36,15.61,8.67,3.39,3.55,5.55,7.86,6.47,12.95.92,5.09,1.39,11.56,1.39,19.43v62.44c0,3.86.35,6.52,1.04,7.98.69,1.47,1.81,2.2,3.35,2.2,1.39,0,2.69-.38,3.93-1.16,1.23-.77,2.46-1.62,3.7-2.54l2.54,3.93c-3.39,2.78-7.4,4.9-12.03,6.36-4.63,1.46-9.64,2.2-15.03,2.2-6.17,0-10.99-.81-14.45-2.43-3.47-1.62-5.94-3.82-7.4-6.59-1.47-2.78-2.28-5.86-2.43-9.25-3.39,5.55-7.63,9.98-12.72,13.3-5.09,3.32-11.49,4.97-19.19,4.97ZM325.37,611.16c2.46,0,4.66-.5,6.59-1.5,1.93-1,3.74-2.74,5.43-5.2v-48.1c-1.24,2.16-2.89,4.2-4.97,6.13-2.08,1.93-4.28,3.86-6.59,5.78-2.31,1.93-4.51,4.05-6.59,6.36-2.08,2.31-3.78,5.05-5.09,8.21-1.31,3.16-1.97,6.98-1.97,11.45,0,6.01,1.23,10.33,3.7,12.95,2.47,2.62,5.63,3.93,9.48,3.93Z"/>
      <path class="cls-1" d="M446.31,504.09v140.6c0,7.4,1.81,12.33,5.44,14.8,3.62,2.46,8.59,3.7,14.92,3.7v4.86c-4.16-.16-9.94-.35-17.34-.58-7.4-.23-15.19-.35-23.36-.35-5.86,0-11.68.12-17.46.35-5.78.23-10.14.42-13.07.58v-4.86c4.93,0,8.4-1.12,10.41-3.35,2-2.24,3.01-6.52,3.01-12.83v-115.17c0-6.94-1-12.06-3.01-15.38-2.01-3.31-5.63-4.97-10.87-4.97v-4.86c4.93.46,9.71.69,14.34.69,7.09,0,13.72-.27,19.89-.81,6.16-.54,11.87-1.35,17.11-2.43ZM481.7,503.17c7.86,0,14.84,2.12,20.93,6.36,6.09,4.24,10.94,10.64,14.57,19.19,3.62,8.56,5.43,19.31,5.43,32.26,0,12.18-1.35,22.59-4.05,31.22-2.7,8.64-6.47,15.73-11.33,21.28-4.86,5.55-10.56,9.6-17.11,12.14-6.55,2.54-13.61,3.82-21.16,3.82-5.71,0-10.98-.81-15.84-2.43-4.86-1.62-8.67-4.2-11.45-7.75l2.31-3.01c1.39,2.16,3.31,3.78,5.78,4.86,2.46,1.08,5.09,1.62,7.86,1.62,6.32,0,11.37-2.2,15.15-6.59,3.78-4.39,6.51-10.83,8.21-19.31,1.69-8.48,2.54-18.81,2.54-30.99,0-13.41-.77-23.86-2.31-31.34-1.54-7.48-3.62-12.76-6.24-15.84-2.62-3.08-5.71-4.63-9.25-4.63-4.94,0-9.37,1.89-13.3,5.67-3.93,3.78-6.13,8.9-6.59,15.38l-.46-9.71c3.24-7.4,8.02-12.95,14.34-16.65,6.32-3.7,13.64-5.55,21.97-5.55Z"/>
      <path class="cls-1" d="M596.62,503.17c11.56,0,21.7,2.05,30.41,6.13,8.71,4.09,15.49,10.75,20.35,20,4.86,9.25,7.28,21.59,7.28,37s-2.43,27.75-7.28,37-11.64,15.92-20.35,20c-8.71,4.08-18.85,6.13-30.41,6.13s-21.47-2.05-30.18-6.13c-8.71-4.08-15.53-10.75-20.47-20-4.94-9.25-7.4-21.58-7.4-37s2.46-27.75,7.4-37c4.93-9.25,11.75-15.92,20.47-20,8.71-4.08,18.77-6.13,30.18-6.13ZM596.62,507.79c-5.4,0-9.91,4.59-13.53,13.76-3.62,9.17-5.44,24.09-5.44,44.75s1.81,35.58,5.44,44.75c3.62,9.17,8.13,13.76,13.53,13.76s10.1-4.58,13.64-13.76c3.54-9.17,5.32-24.09,5.32-44.75s-1.78-35.57-5.32-44.75c-3.55-9.17-8.09-13.76-13.64-13.76Z"/>
      <path class="cls-1" d="M754.34,503.17c6.63,0,11.98.85,16.07,2.54,4.08,1.7,7.28,3.86,9.6,6.47,2.47,2.93,4.24,6.75,5.32,11.45,1.08,4.7,1.62,10.91,1.62,18.62v62.44c0,6.48.89,10.87,2.66,13.18,1.77,2.31,4.89,3.47,9.37,3.47v4.86c-2.93-.15-7.25-.35-12.95-.58-5.71-.23-11.26-.35-16.65-.35-5.86,0-11.56.11-17.11.35-5.55.23-9.71.43-12.49.58v-4.86c3.54,0,6.05-1.16,7.52-3.47,1.46-2.31,2.2-6.71,2.2-13.18v-73.54c0-3.54-.31-6.59-.92-9.13-.62-2.54-1.7-4.47-3.24-5.78-1.54-1.31-3.78-1.97-6.71-1.97-3.39,0-6.59.92-9.6,2.77-3.01,1.85-5.4,4.43-7.17,7.75-1.77,3.32-2.66,7.05-2.66,11.22v68.68c0,6.48.69,10.87,2.08,13.18,1.39,2.31,3.93,3.47,7.63,3.47v4.86c-2.62-.15-6.55-.35-11.79-.58-5.24-.23-10.56-.35-15.96-.35-6.32,0-12.64.11-18.96.35-6.32.23-11.1.43-14.34.58v-4.86c5.09,0,8.67-1.16,10.75-3.47,2.08-2.31,3.12-6.71,3.12-13.18v-73.08c0-6.94-1.01-12.06-3.01-15.38-2.01-3.31-5.63-4.97-10.87-4.97v-4.86c4.93.46,9.71.69,14.34.69,6.94,0,13.53-.27,19.77-.81,6.24-.54,11.99-1.35,17.23-2.43v18.73c3.54-6.94,8.36-11.91,14.45-14.92,6.09-3.01,12.99-4.51,20.7-4.51ZM823.95,503.17c6.63,0,11.98.85,16.07,2.54,4.08,1.7,7.28,3.86,9.6,6.47,2.47,2.93,4.24,6.75,5.32,11.45,1.08,4.7,1.62,10.91,1.62,18.62v62.44c0,6.48,1.04,10.87,3.12,13.18,2.08,2.31,5.67,3.47,10.75,3.47v4.86c-3.09-.15-7.67-.35-13.76-.58-6.09-.23-11.99-.35-17.69-.35s-11.56.11-17.11.35c-5.55.23-9.71.43-12.49.58v-4.86c3.55,0,6.05-1.16,7.52-3.47,1.46-2.31,2.2-6.71,2.2-13.18v-73.54c0-3.54-.39-6.59-1.16-9.13-.77-2.54-2.05-4.47-3.82-5.78-1.78-1.31-4.36-1.97-7.75-1.97s-6.59,1.04-9.6,3.12c-3.01,2.08-5.4,4.82-7.17,8.21-1.77,3.39-2.81,7.17-3.12,11.33l-1.39-11.56c4.16-8.63,9.63-14.49,16.42-17.58,6.78-3.08,14.26-4.62,22.43-4.62Z"/>
      <path class="cls-1" d="M909.74,627.81c-7.09,0-12.95-1.35-17.57-4.05-4.63-2.69-8.02-6.28-10.18-10.75-2.16-4.47-3.24-9.25-3.24-14.34,0-6.48,1.5-11.79,4.51-15.96,3.01-4.16,6.9-7.52,11.68-10.06,4.78-2.54,9.79-4.66,15.03-6.36,5.24-1.69,10.25-3.35,15.03-4.97,4.78-1.62,8.63-3.54,11.56-5.78,2.93-2.23,4.39-5.12,4.39-8.67v-19.19c0-3.39-.5-6.59-1.5-9.6-1.01-3.01-2.78-5.47-5.32-7.4-2.54-1.93-6.05-2.89-10.52-2.89-2.78,0-5.47.39-8.09,1.16-2.62.77-4.94,2-6.94,3.7,4.93,1.7,8.59,4.24,10.98,7.63,2.39,3.39,3.58,7.17,3.58,11.33,0,5.71-1.97,10.21-5.9,13.53-3.93,3.32-8.6,4.97-13.99,4.97-5.86,0-10.37-1.85-13.53-5.55-3.16-3.7-4.74-8.17-4.74-13.41,0-4.63,1.16-8.52,3.47-11.68,2.31-3.16,5.7-6.05,10.18-8.67,4.47-2.62,9.86-4.55,16.19-5.78,6.32-1.23,13.03-1.85,20.12-1.85s13.91.73,20,2.2c6.09,1.47,11.29,4.36,15.61,8.67,3.39,3.55,5.55,7.86,6.47,12.95.92,5.09,1.39,11.56,1.39,19.43v62.44c0,3.86.35,6.52,1.04,7.98.69,1.47,1.81,2.2,3.35,2.2,1.39,0,2.69-.38,3.93-1.16,1.23-.77,2.46-1.62,3.7-2.54l2.54,3.93c-3.39,2.78-7.4,4.9-12.03,6.36s-9.64,2.2-15.03,2.2c-6.17,0-10.99-.81-14.45-2.43-3.47-1.62-5.94-3.82-7.4-6.59-1.47-2.78-2.28-5.86-2.43-9.25-3.39,5.55-7.63,9.98-12.72,13.3-5.09,3.32-11.49,4.97-19.19,4.97ZM928.93,611.16c2.46,0,4.66-.5,6.59-1.5,1.93-1,3.74-2.74,5.43-5.2v-48.1c-1.24,2.16-2.89,4.2-4.97,6.13-2.08,1.93-4.28,3.86-6.59,5.78-2.31,1.93-4.51,4.05-6.59,6.36-2.08,2.31-3.78,5.05-5.09,8.21-1.31,3.16-1.97,6.98-1.97,11.45,0,6.01,1.23,10.33,3.7,12.95,2.47,2.62,5.63,3.93,9.48,3.93Z"/>
      <path class="cls-1" d="M1049.65,468.71v37.7h24.98v4.63h-24.98v94.58c0,3.86.69,6.59,2.08,8.21,1.39,1.62,3.47,2.43,6.24,2.43,2.31,0,4.74-.77,7.28-2.31,2.54-1.54,4.89-4.16,7.05-7.86l3.7,2.31c-2.93,6.32-6.98,11.41-12.14,15.26-5.17,3.85-11.91,5.78-20.24,5.78-5.09,0-9.6-.66-13.53-1.97-3.93-1.31-7.21-3.27-9.83-5.9-3.39-3.39-5.59-7.59-6.59-12.6-1.01-5.01-1.5-11.52-1.5-19.54v-78.39h-18.5v-4.63h18.5v-28.91c7.24,0,13.91-.69,20-2.08,6.09-1.39,11.91-3.62,17.46-6.71Z"/>
    </g>
    <g>
      <path class="cls-1" d="M126.95,750.47v-58.78h16.59c5.11,0,9.64,1.13,13.57,3.39,3.93,2.26,6.96,5.48,9.1,9.65,2.14,4.17,3.22,8.96,3.25,14.37v3.75c0,5.55-1.07,10.4-3.21,14.57-2.14,4.17-5.2,7.38-9.16,9.61-3.97,2.24-8.59,3.38-13.87,3.43h-16.27ZM134.7,698.03v46.11h8.16c5.98,0,10.62-1.86,13.95-5.58,3.32-3.72,4.99-9.01,4.99-15.88v-3.44c0-6.68-1.57-11.87-4.7-15.58-3.14-3.7-7.58-5.58-13.34-5.64h-9.04Z"/>
      <path class="cls-1" d="M180.04,695.2c0-1.21.37-2.23,1.11-3.07.74-.83,1.84-1.25,3.29-1.25s2.56.42,3.31,1.25c.75.84,1.13,1.86,1.13,3.07s-.38,2.22-1.13,3.03c-.75.81-1.86,1.21-3.31,1.21s-2.55-.4-3.29-1.21c-.74-.81-1.11-1.82-1.11-3.03ZM188.12,750.47h-7.47v-43.68h7.47v43.68Z"/>
      <path class="cls-1" d="M218.19,751.28c-5.92,0-10.74-1.94-14.45-5.83-3.71-3.89-5.57-9.09-5.57-15.6v-1.37c0-4.33.83-8.2,2.48-11.61,1.66-3.4,3.97-6.07,6.94-7.99,2.97-1.92,6.2-2.89,9.67-2.89,5.68,0,10.09,1.87,13.24,5.61,3.15,3.74,4.72,9.1,4.72,16.07v3.11h-29.59c.11,4.31,1.37,7.79,3.77,10.44,2.41,2.65,5.47,3.98,9.18,3.98,2.64,0,4.87-.54,6.7-1.61,1.83-1.07,3.43-2.5,4.8-4.28l4.56,3.55c-3.66,5.63-9.15,8.44-16.47,8.44ZM217.26,712.12c-3.02,0-5.54,1.1-7.59,3.29-2.05,2.2-3.31,5.27-3.8,9.23h21.88v-.57c-.22-3.8-1.24-6.73-3.07-8.82-1.83-2.08-4.31-3.13-7.43-3.13Z"/>
      <path class="cls-1" d="M264.38,695.2c0-1.21.37-2.23,1.11-3.07.74-.83,1.84-1.25,3.29-1.25s2.56.42,3.31,1.25c.75.84,1.13,1.86,1.13,3.07s-.38,2.22-1.13,3.03c-.75.81-1.86,1.21-3.31,1.21s-2.55-.4-3.29-1.21c-.74-.81-1.11-1.82-1.11-3.03ZM272.45,750.47h-7.47v-43.68h7.47v43.68Z"/>
      <path class="cls-1" d="M291.47,706.79l.24,5.49c3.34-4.2,7.7-6.3,13.08-6.3,9.23,0,13.89,5.21,13.97,15.62v28.87h-7.47v-28.91c-.03-3.15-.75-5.48-2.16-6.98-1.41-1.51-3.61-2.26-6.6-2.26-2.42,0-4.55.65-6.38,1.94-1.83,1.29-3.26,2.99-4.28,5.09v31.13h-7.47v-43.68h7.07Z"/>
      <path class="cls-1" d="M337.09,706.79l.24,5.49c3.34-4.2,7.7-6.3,13.08-6.3,9.23,0,13.89,5.21,13.97,15.62v28.87h-7.47v-28.91c-.03-3.15-.75-5.48-2.16-6.98-1.41-1.51-3.61-2.26-6.6-2.26-2.42,0-4.55.65-6.38,1.94-1.83,1.29-3.26,2.99-4.28,5.09v31.13h-7.47v-43.68h7.07Z"/>
      <path class="cls-1" d="M373.67,728.23c0-4.28.84-8.13,2.52-11.55,1.68-3.42,4.02-6.06,7.02-7.91,3-1.86,6.43-2.79,10.27-2.79,5.95,0,10.76,2.06,14.43,6.18,3.67,4.12,5.51,9.6,5.51,16.43v.52c0,4.25-.82,8.07-2.44,11.45-1.63,3.38-3.96,6.01-6.98,7.89-3.03,1.88-6.51,2.83-10.44,2.83-5.92,0-10.72-2.06-14.39-6.18s-5.51-9.57-5.51-16.35v-.52ZM381.18,729.11c0,4.84,1.12,8.74,3.37,11.67,2.25,2.93,5.25,4.4,9.02,4.4s6.81-1.49,9.04-4.46c2.23-2.97,3.35-7.14,3.35-12.5,0-4.79-1.14-8.67-3.41-11.65-2.27-2.97-5.3-4.46-9.06-4.46s-6.66,1.47-8.92,4.4c-2.26,2.93-3.39,7.13-3.39,12.6Z"/>
      <path class="cls-1" d="M436.61,740.34l10.82-33.55h7.63l-15.66,43.68h-5.69l-15.83-43.68h7.63l11.1,33.55Z"/>
      <path class="cls-1" d="M488.61,750.47c-.43-.86-.78-2.39-1.05-4.6-3.47,3.61-7.62,5.41-12.43,5.41-4.31,0-7.84-1.22-10.6-3.65-2.76-2.43-4.14-5.52-4.14-9.27,0-4.55,1.73-8.08,5.19-10.6,3.46-2.52,8.32-3.77,14.59-3.77h7.27v-3.43c0-2.61-.78-4.69-2.34-6.24-1.56-1.55-3.86-2.32-6.9-2.32-2.66,0-4.9.67-6.7,2.02-1.8,1.35-2.7,2.97-2.7,4.89h-7.51c0-2.18.77-4.28,2.32-6.32,1.55-2.03,3.65-3.64,6.3-4.82,2.65-1.18,5.56-1.78,8.74-1.78,5.03,0,8.98,1.26,11.83,3.77,2.85,2.52,4.33,5.98,4.44,10.4v20.11c0,4.01.51,7.2,1.53,9.57v.65h-7.83ZM476.21,744.78c2.34,0,4.56-.61,6.66-1.82s3.62-2.79,4.56-4.72v-8.96h-5.85c-9.15,0-13.73,2.68-13.73,8.03,0,2.34.78,4.17,2.34,5.49,1.56,1.32,3.57,1.98,6.02,1.98Z"/>
      <path class="cls-1" d="M516.75,696.21v10.58h8.16v5.77h-8.16v27.13c0,1.75.36,3.07,1.09,3.94s1.96,1.31,3.71,1.31c.86,0,2.05-.16,3.55-.48v6.02c-1.97.53-3.88.8-5.73.8-3.34,0-5.85-1.01-7.55-3.03-1.7-2.02-2.54-4.89-2.54-8.6v-27.09h-7.95v-5.77h7.95v-10.58h7.47Z"/>
      <path class="cls-1" d="M533.66,695.2c0-1.21.37-2.23,1.11-3.07.74-.83,1.84-1.25,3.29-1.25s2.56.42,3.31,1.25c.75.84,1.13,1.86,1.13,3.07s-.38,2.22-1.13,3.03c-.75.81-1.86,1.21-3.31,1.21s-2.55-.4-3.29-1.21c-.74-.81-1.11-1.82-1.11-3.03ZM541.74,750.47h-7.47v-43.68h7.47v43.68Z"/>
      <path class="cls-1" d="M568.1,740.34l10.82-33.55h7.63l-15.66,43.68h-5.69l-15.83-43.68h7.63l11.1,33.55Z"/>
      <path class="cls-1" d="M611.34,751.28c-5.92,0-10.74-1.94-14.45-5.83-3.71-3.89-5.57-9.09-5.57-15.6v-1.37c0-4.33.83-8.2,2.48-11.61,1.66-3.4,3.97-6.07,6.94-7.99,2.97-1.92,6.2-2.89,9.67-2.89,5.68,0,10.09,1.87,13.24,5.61,3.15,3.74,4.72,9.1,4.72,16.07v3.11h-29.59c.11,4.31,1.37,7.79,3.77,10.44,2.41,2.65,5.47,3.98,9.18,3.98,2.64,0,4.87-.54,6.7-1.61,1.83-1.07,3.43-2.5,4.8-4.28l4.56,3.55c-3.66,5.63-9.15,8.44-16.47,8.44ZM610.41,712.12c-3.02,0-5.54,1.1-7.59,3.29-2.05,2.2-3.31,5.27-3.8,9.23h21.88v-.57c-.22-3.8-1.24-6.73-3.07-8.82-1.83-2.08-4.31-3.13-7.43-3.13Z"/>
      <path class="cls-1" d="M691.08,724.51h-24.67v25.96h-7.75v-58.78h36.42v6.34h-28.66v20.15h24.67v6.34Z"/>
      <path class="cls-1" d="M700.36,728.23c0-4.28.84-8.13,2.52-11.55,1.68-3.42,4.02-6.06,7.02-7.91,3-1.86,6.43-2.79,10.27-2.79,5.95,0,10.76,2.06,14.43,6.18,3.67,4.12,5.51,9.6,5.51,16.43v.52c0,4.25-.82,8.07-2.44,11.45-1.63,3.38-3.96,6.01-6.98,7.89-3.03,1.88-6.51,2.83-10.44,2.83-5.92,0-10.72-2.06-14.39-6.18s-5.51-9.57-5.51-16.35v-.52ZM707.87,729.11c0,4.84,1.12,8.74,3.37,11.67,2.25,2.93,5.25,4.4,9.02,4.4s6.81-1.49,9.04-4.46c2.23-2.97,3.35-7.14,3.35-12.5,0-4.79-1.14-8.67-3.41-11.65-2.27-2.97-5.3-4.46-9.06-4.46s-6.66,1.47-8.92,4.4c-2.26,2.93-3.39,7.13-3.39,12.6Z"/>
      <path class="cls-1" d="M759.63,696.21v10.58h8.16v5.77h-8.16v27.13c0,1.75.36,3.07,1.09,3.94s1.96,1.31,3.71,1.31c.86,0,2.05-.16,3.55-.48v6.02c-1.97.53-3.88.8-5.73.8-3.34,0-5.85-1.01-7.55-3.03-1.7-2.02-2.54-4.89-2.54-8.6v-27.09h-7.95v-5.77h7.95v-10.58h7.47Z"/>
      <path class="cls-1" d="M773.72,728.23c0-4.28.84-8.13,2.52-11.55,1.68-3.42,4.02-6.06,7.02-7.91,3-1.86,6.43-2.79,10.27-2.79,5.95,0,10.76,2.06,14.43,6.18,3.67,4.12,5.51,9.6,5.51,16.43v.52c0,4.25-.82,8.07-2.44,11.45-1.63,3.38-3.96,6.01-6.98,7.89-3.03,1.88-6.51,2.83-10.44,2.83-5.92,0-10.72-2.06-14.39-6.18-3.67-4.12-5.51-9.57-5.51-16.35v-.52ZM781.23,729.11c0,4.84,1.12,8.74,3.37,11.67,2.25,2.93,5.25,4.4,9.02,4.4s6.81-1.49,9.04-4.46c2.23-2.97,3.35-7.14,3.35-12.5,0-4.79-1.14-8.67-3.41-11.65-2.27-2.97-5.3-4.46-9.06-4.46s-6.66,1.47-8.92,4.4c-2.26,2.93-3.39,7.13-3.39,12.6Z"/>
      <path class="cls-1" d="M859.83,729.11c0,6.68-1.53,12.04-4.6,16.09-3.07,4.05-7.19,6.08-12.35,6.08-5.52,0-9.78-1.95-12.8-5.85l-.36,5.05h-6.86v-62.01h7.47v23.13c3.01-3.74,7.17-5.61,12.48-5.61s9.47,2.01,12.5,6.02c3.03,4.01,4.54,9.5,4.54,16.47v.65ZM852.37,728.27c0-5.09-.98-9.02-2.95-11.79-1.97-2.77-4.79-4.16-8.48-4.16-4.93,0-8.47,2.29-10.62,6.86v18.89c2.29,4.58,5.85,6.86,10.7,6.86,3.58,0,6.36-1.39,8.36-4.16,1.99-2.77,2.99-6.94,2.99-12.52Z"/>
      <path class="cls-1" d="M867.26,728.23c0-4.28.84-8.13,2.52-11.55,1.68-3.42,4.02-6.06,7.02-7.91,3-1.86,6.43-2.79,10.27-2.79,5.95,0,10.76,2.06,14.43,6.18,3.67,4.12,5.51,9.6,5.51,16.43v.52c0,4.25-.82,8.07-2.44,11.45-1.63,3.38-3.96,6.01-6.98,7.89-3.03,1.88-6.51,2.83-10.44,2.83-5.92,0-10.72-2.06-14.39-6.18s-5.51-9.57-5.51-16.35v-.52ZM874.77,729.11c0,4.84,1.12,8.74,3.37,11.67,2.25,2.93,5.25,4.4,9.02,4.4s6.81-1.49,9.04-4.46c2.23-2.97,3.35-7.14,3.35-12.5,0-4.79-1.14-8.67-3.41-11.65-2.27-2.97-5.3-4.46-9.06-4.46s-6.66,1.47-8.92,4.4c-2.26,2.93-3.39,7.13-3.39,12.6Z"/>
      <path class="cls-1" d="M930.2,722.74l9.69-15.95h8.72l-14.29,21.6,14.74,22.08h-8.64l-10.09-16.35-10.09,16.35h-8.68l14.74-22.08-14.29-21.6h8.64l9.57,15.95Z"/>
    </g>
  </g>
  <g>
    <path class="cls-1" d="M538,142.89c-14.09,0-26.87,5.73-36.13,14.99l17.67,17.67c4.73-4.73,11.26-7.66,18.46-7.66,14.41,0,26.13,11.72,26.13,26.12s-11.72,26.12-26.13,26.12c-7.2,0-13.73-2.93-18.46-7.66l-17.67,17.67c9.26,9.26,22.04,14.99,36.13,14.99,28.19,0,51.13-22.93,51.13-51.12s-22.94-51.12-51.13-51.12Z"/>
    <path class="cls-1" d="M538,71.38c-33.81,0-64.46,13.75-86.67,35.96l17.67,17.67c17.68-17.68,42.09-28.63,69-28.63,53.84,0,97.64,43.8,97.64,97.63s-43.8,97.63-97.64,97.63c-26.91,0-51.32-10.95-69-28.62l-17.67,17.66c22.21,22.21,52.86,35.96,86.67,35.96,67.62,0,122.64-55.01,122.64-122.63s-55.02-122.63-122.64-122.63Z"/>
    <path class="cls-1" d="M344,0v388.02h388.01V0h-388.01ZM707.01,363.02h-338.01V25h338.01v338.02Z"/>
  </g>
</svg>